<?xml version="1.0" standalone="no"?>
<!DOCTYPE svg PUBLIC "-//W3C//DTD SVG 20010904//EN" "http://www.w3.org/TR/2001/REC-SVG-20010904/DTD/svg10.dtd">
<!-- Created using Krita: https://krita.org -->
<svg xmlns="http://www.w3.org/2000/svg" 
    xmlns:xlink="http://www.w3.org/1999/xlink"
    xmlns:krita="http://krita.org/namespaces/svg/krita"
    xmlns:sodipodi="http://sodipodi.sourceforge.net/DTD/sodipodi-0.dtd"
    width="106.08pt"
    height="95.76pt"
    viewBox="0 0 106.08 95.76">
<defs/>
<path id="shape0" transform="matrix(0.999999883501781 0 0 0.999999883501781 5.28002080080622 26.5448407892419)" fill="#ff5608" stroke="#1e0b0b" stroke-width="2.4" stroke-linecap="square" stroke-linejoin="bevel" d="M0 19.1336L27.7842 40.1221L42.96 64.8952C44.1841 65.0642 49.4541 65.4309 49.9582 64.6999C55.451 56.7348 58.8178 48.9319 64.3105 40.9668L91.44 19.7829L72.72 16.5361L54.48 0L35.2768 3.37871L16.56 18.9171Z" sodipodi:nodetypes="ccccccccccc"/><path id="shape1" transform="matrix(0.999999883501781 0 0 0.999999883501781 65.8442810528438 1.25741677778971)" fill="#ffffff" stroke="#1e0b0b" stroke-width="2.4" stroke-linecap="square" stroke-linejoin="bevel" d="M0 29.0337L2.80971 12.6437L33.7166 0L27.6357 28.7426L10.7157 39.7826Z" sodipodi:nodetypes="cccccc"/><path id="shape01" transform="matrix(-0.999999864229073 0 0 0.999999864229073 36.8093303916092 3.22294329587057)" fill="#ffffff" stroke="#1e0b0b" stroke-width="2.4" stroke-linecap="square" stroke-linejoin="bevel" d="M0 29.0337L2.80971 12.6437L33.7166 0L29.1293 27.2571L12.4493 40.0971Z" sodipodi:nodetypes="cccccc"/><path id="shape2" transform="matrix(0.999999883501781 0 0 0.999999883501781 48.8714896258308 80.0569243600342)" fill="#000000" stroke="#1e0b0b" stroke-width="2.4" stroke-linecap="square" stroke-linejoin="bevel" d="M0 3.84674L2.71383 0L5.68788 3.50459L2.79405 9.32106Z" sodipodi:nodetypes="ccccc"/><path id="shape3" transform="matrix(0.999999883501781 0 0 0.999999883501781 54.2781947770082 47.9272005056158)" fill="#ffffff" stroke="#1e0b0b" stroke-width="2.4" stroke-linecap="square" stroke-linejoin="bevel" d="M0 36.0327L6.72799 12.2906L31.928 0C25.578 5.82048 23.4902 9.50811 17.1403 15.3286C11.7064 20.3094 8.0786 32.6539 3.22441 38.0692C2.45628 38.9261 0.859857 35.2445 0 36.0327Z" sodipodi:nodetypes="cccccc"/><path id="shape011" transform="matrix(-0.999999881343358 0 0 0.999999881343358 49.0875649919614 50.9357374088488)" fill="#ffffff" stroke="#1e0b0b" stroke-width="2.4" stroke-linecap="square" stroke-linejoin="bevel" d="M0 32.7639L6.72799 9.02183L29.9603 0C23.6103 5.82048 23.4902 6.23935 17.1403 12.0598C11.7064 17.0406 8.0786 29.3851 3.22441 34.8004C2.45628 35.6573 0.859857 31.9757 0 32.7639Z" sodipodi:nodetypes="cccccc"/><path id="shape4" transform="matrix(0.999999883501781 0 0 0.999999883501781 65.7600205138857 2.87999677683766)" fill="#ff5608" stroke="#1e0b0b" stroke-width="2.4" stroke-linecap="square" stroke-linejoin="bevel" d="M5.4 32.4L11.52 17.52L32.4 4.56L32.4 0L3.6 11.04L0 27.36Z" sodipodi:nodetypes="ccccccc"/><path id="shape02" transform="matrix(-0.999999912365659 0 0 0.999999912365659 36.0133831388595 4.59735137144756)" fill="#ff5608" stroke="#1e0b0b" stroke-width="2.4" stroke-linecap="square" stroke-linejoin="bevel" d="M5.29337 32.8426L11.52 17.52L32.4 4.56L32.4 0L3.6 11.04L0 25.68Z" sodipodi:nodetypes="ccccccc"/><path id="shape5" transform="matrix(0.982295408327789 0.187337924034942 -0.187337924034942 0.982295408327789 63.4391378086234 42.0053491978833)" fill="#ffffff" stroke="#1e0b0b" stroke-width="2.4" stroke-linecap="square" stroke-linejoin="bevel" d="M0.96 14.88L0 6.72L9.84 0L14.16 3.6Z" sodipodi:nodetypes="ccccc"/><ellipse id="shape6" transform="matrix(0.999999883501781 0 0 0.999999883501781 65.9999945059937 47.0399795418108)" rx="2.31001196076416" ry="2.58001053028751" cx="2.31001196076416" cy="2.58001053028751" fill="#06bd00" stroke="#1e0b0b" stroke-width="2.4" stroke-linecap="square" stroke-linejoin="bevel"/><path id="shape7" transform="matrix(0.999999883501781 0 0 0.999999883501781 67.9024891236995 47.4606919032601)" fill="#000000" stroke="#1e0b0b" stroke-width="0.48" stroke-linecap="square" stroke-linejoin="bevel" d="M0.296985 4.179L0 2.4077C0.109602 1.60513 0.219203 0.802566 0.328805 0L0.763675 2.41831Z" sodipodi:nodetypes="ccccc"/><path id="shape03" transform="matrix(-0.982295373599403 0.187337917411735 0.187337917411735 0.982295373599403 42.14616281021 42.3021948844713)" fill="none" stroke="#1e0b0b" stroke-width="2.4" stroke-linecap="square" stroke-linejoin="bevel" d="M0.96 14.88L0 6.72L9.84 0L14.16 3.6Z" sodipodi:nodetypes="ccccc"/><path id="shape8" transform="matrix(0.999999883501781 0 0 0.999999883501781 30.7157413852928 46.0181909631432)" fill="none" stroke="#1e0b0b" stroke-width="1.68" stroke-linecap="square" stroke-linejoin="miter" stroke-miterlimit="2" d="M0 0L12.7279 7.04278" sodipodi:nodetypes="cc"/>
</svg>
