<?xml version="1.0" standalone="no"?>
<!DOCTYPE svg PUBLIC "-//W3C//DTD SVG 20010904//EN" "http://www.w3.org/TR/2001/REC-SVG-20010904/DTD/svg10.dtd">
<!-- Created using Krita: https://krita.org -->
<svg xmlns="http://www.w3.org/2000/svg" 
    xmlns:xlink="http://www.w3.org/1999/xlink"
    xmlns:krita="http://krita.org/namespaces/svg/krita"
    xmlns:sodipodi="http://sodipodi.sourceforge.net/DTD/sodipodi-0.dtd"
    width="311.52pt"
    height="179.04pt"
    viewBox="0 0 311.52 179.04">
<defs>
  <linearGradient id="gradient0" gradientUnits="objectBoundingBox" x1="0" y1="0" x2="1" y2="1" spreadMethod="pad">
   <stop stop-color="#ffffff" offset="0" stop-opacity="1"/>
   <stop stop-color="#6b6a7b" offset="1" stop-opacity="1"/>
  </linearGradient>
  <linearGradient id="gradient1" gradientUnits="objectBoundingBox" x1="1.12280700009718" y1="-0.00507614183547228" x2="0" y2="0.0253807675893094" spreadMethod="pad">
   <stop stop-color="#ffffff" offset="0.0509999990463257" stop-opacity="1"/>
   <stop stop-color="#6b6a7b" offset="0.482400000095367" stop-opacity="1"/>
  </linearGradient>
  <linearGradient id="gradient2" gradientUnits="objectBoundingBox" x1="1.04330640519967" y1="0.0336137846763526" x2="-0.170538893638661" y2="0.0420071367239532" spreadMethod="repeat">
   <stop stop-color="#ffffff" offset="0.0509999990463257" stop-opacity="1"/>
   <stop stop-color="#6b6a7b" offset="0.0824000015854836" stop-opacity="1"/>
  </linearGradient>
  <linearGradient id="gradient3" gradientUnits="objectBoundingBox" x1="0.893580846099042" y1="0.0167418527828748" x2="-0.873353403640448" y2="0.100451116697249" spreadMethod="repeat">
   <stop stop-color="#ffffff" offset="0.0509999990463257" stop-opacity="1"/>
   <stop stop-color="#6b6a7b" offset="0.482400000095367" stop-opacity="1"/>
  </linearGradient>
  <linearGradient id="gradient4" gradientUnits="objectBoundingBox" x1="0" y1="0" x2="1" y2="1" spreadMethod="pad">
   <stop stop-color="#6b6a7b" offset="0" stop-opacity="1"/>
  </linearGradient>
  <linearGradient id="gradient5" gradientUnits="objectBoundingBox" x1="0" y1="0" x2="1" y2="1" spreadMethod="pad">
   <stop stop-color="#ffffff" offset="0" stop-opacity="1"/>
   <stop stop-color="#6b6a7b" offset="1" stop-opacity="1"/>
  </linearGradient>
  <linearGradient id="gradient6" gradientUnits="objectBoundingBox" x1="0" y1="0" x2="1" y2="1" spreadMethod="repeat">
   <stop stop-color="#6b6a7b" offset="0" stop-opacity="1"/>
  </linearGradient>
  <linearGradient id="gradient7" gradientUnits="objectBoundingBox" x1="0" y1="0" x2="1.22734598735115" y2="0.630137762065446" spreadMethod="repeat">
   <stop stop-color="#ffffff" offset="0.0979999974370003" stop-opacity="1"/>
   <stop stop-color="#6b6a7b" offset="0.325500011444092" stop-opacity="1"/>
  </linearGradient>
  <linearGradient id="gradient8" gradientUnits="objectBoundingBox" x1="0" y1="0" x2="1" y2="1" spreadMethod="repeat">
   <stop stop-color="#ffffff" offset="0.0979999974370003" stop-opacity="1"/>
   <stop stop-color="#6b6a7b" offset="0.325500011444092" stop-opacity="1"/>
  </linearGradient>
  <linearGradient id="gradient9" gradientUnits="objectBoundingBox" x1="-0.0310816138021091" y1="0.012405380947333" x2="0.580398213671529" y2="1.02481076189467" spreadMethod="pad">
   <stop stop-color="#ffffff" offset="0.294099986553192" stop-opacity="1"/>
   <stop stop-color="#6b6a7b" offset="0.64709997177124" stop-opacity="1"/>
  </linearGradient>
  <linearGradient id="gradient10" gradientUnits="objectBoundingBox" x1="0" y1="0" x2="1" y2="1" spreadMethod="pad">
   <stop stop-color="#6b6a7b" offset="0" stop-opacity="1"/>
  </linearGradient>
 </defs>
<path id="shape0" transform="matrix(1.00000003526685 0 0 1.00000003526685 84.2400017447078 8.40000017167391)" fill="url(#gradient0)" fill-rule="evenodd" stroke="#000000" stroke-width="0.72" stroke-linecap="square" stroke-linejoin="bevel" d="M69.84 141.84L69.84 0L0 30.96L0 121.68Z" sodipodi:nodetypes="ccccc"/><path id="shape1" transform="matrix(1.00000003526685 0 0 1.00000003526685 154.080005433916 9.12000019156751)" fill="url(#gradient1)" fill-rule="evenodd" stroke="#000000" stroke-width="0.72" stroke-linecap="square" stroke-linejoin="bevel" d="M0 0L41.04 18L41.04 129.6L0 141.84Z" sodipodi:nodetypes="ccccc"/><path id="shape2" transform="matrix(1.00000003526685 0 0 1.00000003526685 178.963445427235 22.7198478754544)" fill="url(#gradient2)" fill-rule="evenodd" stroke="#000000" stroke-width="0.72" stroke-linecap="square" stroke-linejoin="bevel" d="M0 8.97608L26.2966 0L28.2947 128.519L0.972062 121.561Z" sodipodi:nodetypes="ccccc"/><path id="shape3" transform="matrix(1.00000003526685 0 0 1.00000003526685 205.576316986862 22.4220411449457)" fill="url(#gradient3)" fill-rule="evenodd" stroke="#000000" stroke-width="0.72" stroke-linecap="square" stroke-linejoin="bevel" d="M0 0L18.3437 9.01796L20.1437 122.058L2.02371 129.018C0.883707 86.178 1.14 42.84 0 0Z" sodipodi:nodetypes="ccccc"/><path id="shape4" transform="matrix(1.00000003526685 0 0 1.00000003526685 108.00000329165 117.840012880192)" fill="url(#gradient4)" fill-rule="evenodd" stroke="#000000" stroke-width="0.72" stroke-linecap="square" stroke-linejoin="bevel" d="M32.7335 29.8347L0.36 38.16C0.24 27 0.12 15.84 0 4.67999L33.12 0Z" sodipodi:nodetypes="ccccc"/><path id="shape5" transform="matrix(1.00000003526685 0 0 1.00000003526685 70.5599931627057 115.199994784482)" fill="#ffffff" fill-rule="evenodd" stroke="#000000" stroke-width="0.72" stroke-linecap="square" stroke-linejoin="bevel" d="M37.2 6.96L0 0L0.24 25.44L37.68 40.8Z" sodipodi:nodetypes="ccccc"/><path id="shape6" transform="matrix(1.00000003526685 0 0 1.00000003526685 71.039993149158 112.319994865772)" fill="url(#gradient5)" fill-rule="evenodd" stroke="#000000" stroke-width="0.72" stroke-linecap="square" stroke-linejoin="bevel" d="M69.84 5.28L26.64 0L0 2.64C12.24 4.8 24.66 8.16001 36.9 10.32Z" sodipodi:nodetypes="ccccc"/><path id="shape7" transform="matrix(1.00000003526685 0 0 1.00000003526685 56.2800016783011 120.120004079652)" fill="url(#gradient6)" fill-rule="evenodd" stroke="#000000" stroke-width="0.72" stroke-linecap="square" stroke-linejoin="bevel" d="M37.92 0L37.68 29.64L0 37.56L0.24 4.44Z" sodipodi:nodetypes="ccccc"/><path id="shape8" transform="matrix(1.00000003526685 0 0 1.00000003526685 24.7200075551382 115.200014136788)" fill="url(#gradient7)" fill-rule="evenodd" stroke="#000000" stroke-width="0.72" stroke-linecap="square" stroke-linejoin="bevel" d="M31.56 9.71999L0 0L0.48 23.28L31.6698 42.8268Z" sodipodi:nodetypes="ccccc"/><path id="shape9" transform="matrix(1.00000003526685 0 0 1.00000003526685 25.1639625447714 112.885072400406)" fill="url(#gradient8)" fill-rule="evenodd" stroke="#000000" stroke-width="0.72" stroke-linecap="square" stroke-linejoin="bevel" d="M69.756 7.23493L31.3955 0L0 1.86676L31.476 11.1949Z" sodipodi:nodetypes="ccccc"/><path id="shape10" transform="matrix(1.00000003526685 0 0 1.00000003526685 60.9718587628372 108.133323965553)" fill="url(#gradient9)" fill-rule="evenodd" stroke="#000000" stroke-width="0.72" stroke-linecap="square" stroke-linejoin="bevel" d="M8.31558 58.0393L46.3296 1.18794L37.3352 0L0 52.439Z" sodipodi:nodetypes="ccccc"/><path id="shape11" transform="matrix(1.00000003526685 0 0 1.00000003526685 68.9480237669867 108.472735242325)" fill="url(#gradient10)" fill-rule="evenodd" stroke="#000000" stroke-width="0.72" stroke-linecap="square" stroke-linejoin="bevel" d="M0 57.5302L38.0141 47.5176L38.3535 0Z" sodipodi:nodetypes="cccc"/><path id="shape12" transform="matrix(1.00000003526685 0 0 1.00000003526685 -40.8000016046847 95.5200035685348)" fill="none" stroke="#1e0403" stroke-width="2.4" stroke-linecap="square" stroke-linejoin="miter" stroke-miterlimit="2" d="M178.56 120.96L0 0" sodipodi:nodetypes="cc"/><path id="shape13" transform="matrix(1.00000003526685 0 0 1.00000003526685 90.2399924772757 162.239993303588)" fill="none" stroke="#1e0403" stroke-width="2.4" stroke-linecap="square" stroke-linejoin="miter" stroke-miterlimit="2" d="M105.6 53.28L0 0" sodipodi:nodetypes="cc"/><path id="shape14" transform="matrix(1.00000003526685 0 0 1.00000003526685 -36.9600038332229 95.5200035685348)" fill="none" stroke="#1e0403" stroke-width="2.4" stroke-linecap="square" stroke-linejoin="miter" stroke-miterlimit="2" d="M59.52 32.16L0 0" sodipodi:nodetypes="cc"/><path id="shape15" transform="matrix(1.00000003526685 0 0 1.00000003526685 109.44000299253 155.640004803219)" fill="none" stroke="#1e0403" stroke-width="2.4" stroke-linecap="square" stroke-linejoin="miter" stroke-miterlimit="2" d="M142.92 59.04L0 0" sodipodi:nodetypes="cc"/><path id="shape16" transform="matrix(1.00000003526685 0 0 1.00000003526685 -32.0400039759298 95.5200035685348)" fill="none" stroke="#1e0403" stroke-width="2.4" stroke-linecap="square" stroke-linejoin="miter" stroke-miterlimit="2" d="M55.44 26.28L0 0" sodipodi:nodetypes="cc"/><path id="shape17" transform="matrix(1.00000003526685 0 0 1.00000003526685 125.280003477221 151.20000466736)" fill="none" stroke="#1e0403" stroke-width="2.4" stroke-linecap="square" stroke-linejoin="miter" stroke-miterlimit="2" d="M185.76 62.88L0 0" sodipodi:nodetypes="cc"/><path id="shape18" transform="matrix(1.00000003526685 0 0 1.00000003526685 -16.3200044318962 103.439995009114)" fill="none" stroke="#1e0403" stroke-width="2.4" stroke-linecap="square" stroke-linejoin="miter" stroke-miterlimit="2" d="M39.6 13.44L0 0" sodipodi:nodetypes="cc"/><path id="shape19" transform="matrix(1.00000003526685 0 0 1.00000003526685 154.080005433916 152.399999146542)" fill="none" stroke="#1e0403" stroke-width="2.4" stroke-linecap="square" stroke-linejoin="miter" stroke-miterlimit="2" d="M214.56 61.2L0 0" sodipodi:nodetypes="cc"/><path id="shape20" transform="matrix(1.00000003526685 0 0 1.00000003526685 167.039997502348 148.0799991431)" fill="none" stroke="#1e0403" stroke-width="2.4" stroke-linecap="square" stroke-linejoin="miter" stroke-miterlimit="2" d="M211.68 53.28L0 0" sodipodi:nodetypes="cc"/><path id="shape21" transform="matrix(1.00000003526685 0 0 1.00000003526685 213.600006179739 153.120004726111)" fill="none" stroke="#1e0403" stroke-width="2.4" stroke-linecap="square" stroke-linejoin="miter" stroke-miterlimit="2" d="M167.04 36.48L0 0" sodipodi:nodetypes="cc"/><path id="shape22" transform="matrix(1.00000003526685 0 0 1.00000003526685 219.59999754423 147.359999142527)" fill="none" stroke="#1e0403" stroke-width="2.4" stroke-linecap="square" stroke-linejoin="miter" stroke-miterlimit="2" d="M161.28 32.4L0 0" sodipodi:nodetypes="cc"/><path id="shape23" transform="matrix(1.00000003526685 0 0 1.00000003526685 237.600006914119 145.200004483767)" fill="none" stroke="#1e0403" stroke-width="2.4" stroke-linecap="square" stroke-linejoin="miter" stroke-miterlimit="2" d="M142.56 26.64L0 0" sodipodi:nodetypes="cc"/><path id="shape24" transform="matrix(1.00000003526685 0 0 1.00000003526685 226.319986980384 137.99999312546)" fill="none" stroke="#1e0403" stroke-width="2.4" stroke-linecap="square" stroke-linejoin="miter" stroke-miterlimit="2" d="M156 28.08L0 0" sodipodi:nodetypes="cc"/><path id="shape25" transform="matrix(1.00000003526685 0 0 1.00000003526685 226.560006576305 133.440004123921)" fill="none" stroke="#1e0403" stroke-width="2.4" stroke-linecap="square" stroke-linejoin="miter" stroke-miterlimit="2" d="M154.08 22.56L0 0" sodipodi:nodetypes="cc"/><path id="shape26" transform="matrix(1.00000003526685 0 0 1.00000003526685 227.28338608295 130.661748384682)" fill="none" stroke="#1e0403" stroke-width="2.4" stroke-linecap="square" stroke-linejoin="miter" stroke-miterlimit="2" d="M151.917 21.4983L0 0" sodipodi:nodetypes="cc"/><path id="shape27" transform="matrix(1.00000003526685 0 0 1.00000003526685 -39.8400015753086 95.5200035685348)" fill="none" stroke="#1e0403" stroke-width="2.4" stroke-linecap="square" stroke-linejoin="miter" stroke-miterlimit="2" d="M117.12 120L0 0" sodipodi:nodetypes="cc"/><path id="shape28" transform="matrix(1.00000003526685 0 0 1.00000003526685 60.8400015054148 -22.2000006385307)" fill="none" stroke="#1e0403" stroke-width="2.4" stroke-linecap="square" stroke-linejoin="miter" stroke-miterlimit="2" d="M0 0L83.52 33.84" sodipodi:nodetypes="cc"/><path id="shape29" transform="matrix(1.00000003526685 0 0 1.00000003526685 4.31999977595032 -21.1200006054837)" fill="none" stroke="#1e0403" stroke-width="2.4" stroke-linecap="square" stroke-linejoin="miter" stroke-miterlimit="2" d="M0 0L122.4 41.04" sodipodi:nodetypes="cc"/><path id="shape30" transform="matrix(1.00000003526685 0 0 1.00000003526685 -53.2800019865611 -22.0800006348588)" fill="none" stroke="#1e0403" stroke-width="2.4" stroke-linecap="square" stroke-linejoin="miter" stroke-miterlimit="2" d="M0 0L165.6 48.48" sodipodi:nodetypes="cc"/><path id="shape31" transform="matrix(1.00000003526685 0 0 1.00000003526685 -77.2800026637206 -12.4800016285671)" fill="none" stroke="#1e0403" stroke-width="2.4" stroke-linecap="square" stroke-linejoin="miter" stroke-miterlimit="2" d="M0 0L175.68 44.16" sodipodi:nodetypes="cc"/><path id="shape32" transform="matrix(1.00000003526685 0 0 1.00000003526685 -76.3200026915658 -0.480001976633008)" fill="none" stroke="#1e0403" stroke-width="2.4" stroke-linecap="square" stroke-linejoin="miter" stroke-miterlimit="2" d="M0 0L163.936 36.4036" sodipodi:nodetypes="cc"/><path id="shape33" transform="matrix(1.00000003526685 0 0 1.00000003526685 -75.8400027054885 8.63999775883696)" fill="none" stroke="#1e0403" stroke-width="2.4" stroke-linecap="square" stroke-linejoin="miter" stroke-miterlimit="2" d="M0 0L158.4 32.64" sodipodi:nodetypes="cc"/><path id="shape34" transform="matrix(1.00000003526685 0 0 1.00000003526685 -74.8800027333338 16.7999975221522)" fill="none" stroke="#1e0403" stroke-width="2.4" stroke-linecap="square" stroke-linejoin="miter" stroke-miterlimit="2" d="M0 0L157.92 29.28" sodipodi:nodetypes="cc"/><path id="shape35" transform="matrix(1.00000003526685 0 0 1.00000003526685 226.799988516292 45.1199967007171)" fill="none" stroke="#1e0403" stroke-width="2.4" stroke-linecap="square" stroke-linejoin="miter" stroke-miterlimit="2" d="M0 0L125.28 50.4" sodipodi:nodetypes="cc"/><path id="shape36" transform="matrix(1.00000003526685 0 0 1.00000003526685 226.439988526734 53.7599964501097)" fill="none" stroke="#1e0403" stroke-width="2.4" stroke-linecap="square" stroke-linejoin="miter" stroke-miterlimit="2" d="M0 0L127.44 41.76" sodipodi:nodetypes="cc"/><path id="shape37" transform="matrix(1.00000003526685 0 0 1.00000003526685 226.079988537176 58.4399963143641)" fill="none" stroke="#1e0403" stroke-width="2.4" stroke-linecap="square" stroke-linejoin="miter" stroke-miterlimit="2" d="M0 0L116.64 37.08" sodipodi:nodetypes="cc"/><path id="shape38" transform="matrix(1.00000003526685 0 0 1.00000003526685 162.000004600827 -24.0000006936091)" fill="none" stroke="#1e0403" stroke-width="2.4" stroke-linecap="square" stroke-linejoin="miter" stroke-miterlimit="2" d="M0 35.28L87.12 0" sodipodi:nodetypes="cc"/><path id="shape39" transform="matrix(1.00000003526685 0 0 1.00000003526685 180.4800051663 -22.0800006348587)" fill="none" stroke="#1e0403" stroke-width="2.4" stroke-linecap="square" stroke-linejoin="miter" stroke-miterlimit="2" d="M0 41.76L121.92 0" sodipodi:nodetypes="cc"/><path id="shape40" transform="matrix(1.00000003526685 0 0 1.00000003526685 207.840006003493 -21.1200006054836)" fill="none" stroke="#1e0403" stroke-width="2.4" stroke-linecap="square" stroke-linejoin="miter" stroke-miterlimit="2" d="M0 42.72L150.72 0" sodipodi:nodetypes="cc"/><path id="shape41" transform="matrix(1.00000003526685 0 0 1.00000003526685 220.32000638537 28.8000009220268)" fill="none" stroke="#1e0403" stroke-width="2.4" stroke-linecap="square" stroke-linejoin="miter" stroke-miterlimit="2" d="M0 0L0.48 0" sodipodi:nodetypes="cc"/><path id="shape42" transform="matrix(1.00000003526685 0 0 1.00000003526685 221.280006414745 -11.5200003117315)" fill="none" stroke="#1e0403" stroke-width="2.4" stroke-linecap="square" stroke-linejoin="miter" stroke-miterlimit="2" d="M159.36 0L0 39.84" sodipodi:nodetypes="cc"/><path id="shape43" transform="matrix(1.00000003526685 0 0 1.00000003526685 224.639997548251 -0.960000975657315)" fill="none" stroke="#1e0403" stroke-width="2.4" stroke-linecap="square" stroke-linejoin="miter" stroke-miterlimit="2" d="M0 36L156.48 0" sodipodi:nodetypes="cc"/><path id="shape44" transform="matrix(1.00000003526685 0 0 1.00000003526685 224.159997547869 10.0799990331398)" fill="none" stroke="#1e0403" stroke-width="2.4" stroke-linecap="square" stroke-linejoin="miter" stroke-miterlimit="2" d="M0 31.68L155.52 0" sodipodi:nodetypes="cc"/><path id="shape45" transform="matrix(1.00000003526685 0 0 1.00000003526685 224.639997548251 16.7999990384946)" fill="none" stroke="#1e0403" stroke-width="2.4" stroke-linecap="square" stroke-linejoin="miter" stroke-miterlimit="2" d="M0 29.28L156 0" sodipodi:nodetypes="cc"/><path id="shape46" transform="matrix(1.00000003526685 0 0 1.00000003526685 119.039991641925 -21.1200013779597)" fill="none" stroke="#1e0403" stroke-width="2.4" stroke-linecap="square" stroke-linejoin="miter" stroke-miterlimit="2" d="M0 0L1.92 0" sodipodi:nodetypes="cc"/><path id="shape47" transform="matrix(1.00000003526685 0 0 1.00000003526685 119.039991641925 -21.1200013779597)" fill="none" stroke="#1e0403" stroke-width="2.4" stroke-linecap="square" stroke-linejoin="miter" stroke-miterlimit="2" d="M0 0L220.8 109.92" sodipodi:nodetypes="cc"/><path id="shape48" transform="matrix(1.00000003526685 0 0 1.00000003526685 174.7199900269 -22.5600013361917)" fill="none" stroke="#1e0403" stroke-width="2.4" stroke-linecap="square" stroke-linejoin="miter" stroke-miterlimit="2" d="M0 0L177.6 118.08" sodipodi:nodetypes="cc"/><path id="shape49" transform="matrix(1.00000003526685 0 0 1.00000003526685 234.239988300494 -21.6000013640371)" fill="none" stroke="#1e0403" stroke-width="2.4" stroke-linecap="square" stroke-linejoin="miter" stroke-miterlimit="2" d="M0 0L120 117.12" sodipodi:nodetypes="cc"/><path id="shape51" transform="matrix(1.00000003526685 0 0 1.00000003526685 349.920010351026 -21.1200006054834)" fill="none" stroke="#1e0403" stroke-width="2.4" stroke-linecap="square" stroke-linejoin="miter" stroke-miterlimit="2" d="M1.44 0L0 116.64" sodipodi:nodetypes="cc"/><path id="shape52" transform="matrix(1.00000003526685 0 0 1.00000003526685 -34.0800013990567 -22.0800006348586)" fill="none" stroke="#1e0403" stroke-width="2.4" stroke-linecap="square" stroke-linejoin="miter" stroke-miterlimit="2" d="M222.72 0L0 112.8" sodipodi:nodetypes="cc"/><path id="shape53" transform="matrix(1.00000003526685 0 0 1.00000003526685 -41.7600026640266 -21.1200009917215)" fill="none" stroke="#1e0403" stroke-width="2.4" stroke-linecap="square" stroke-linejoin="miter" stroke-miterlimit="2" d="M170.64 0L0 116.64" sodipodi:nodetypes="cc"/><path id="shape54" transform="matrix(1.00000003526685 0 0 1.00000003526685 -40.3200026628792 -22.5600009928689)" fill="none" stroke="#1e0403" stroke-width="2.4" stroke-linecap="square" stroke-linejoin="miter" stroke-miterlimit="2" d="M112.32 0L0 118.08" sodipodi:nodetypes="cc"/><path id="shape55" transform="matrix(1.00000003526685 0 0 1.00000003526685 -10.5600026391648 41.8632708681342)" fill="none" stroke="#1e0403" stroke-width="2.4" stroke-linecap="square" stroke-linejoin="miter" stroke-miterlimit="2" d="M92.9148 0L0 40.2167" sodipodi:nodetypes="cc"/><path id="shape56" transform="matrix(1.00000003526685 0 0 1.00000003526685 -23.520002649492 55.0154576166017)" fill="none" stroke="#1e0403" stroke-width="2.4" stroke-linecap="square" stroke-linejoin="miter" stroke-miterlimit="2" d="M106.808 0L0 34.2645" sodipodi:nodetypes="cc"/><path id="shape57" transform="matrix(1.00000003526685 0 0 1.00000003526685 -77.7600026927133 22.559999043085)" fill="none" stroke="#1e0403" stroke-width="2.4" stroke-linecap="square" stroke-linejoin="miter" stroke-miterlimit="2" d="M160.539 27.534L0 0" sodipodi:nodetypes="cc"/><path id="shape58" transform="matrix(1.00000003526685 0 0 1.00000003526685 -74.4000026900359 34.0799990522648)" fill="none" stroke="#1e0403" stroke-width="2.4" stroke-linecap="square" stroke-linejoin="miter" stroke-miterlimit="2" d="M154.803 21.6991L0 0" sodipodi:nodetypes="cc"/><path id="shape59" transform="matrix(1.00000003526685 0 0 1.00000003526685 -5.28000051780025 149.280004608617)" fill="none" stroke="#1e0403" stroke-width="2.4" stroke-linecap="square" stroke-linejoin="miter" stroke-miterlimit="2" d="M0 64.8L195.36 0" sodipodi:nodetypes="cc"/><path id="shape60" transform="matrix(1.00000003526685 0 0 1.00000003526685 228.480006635063 95.5200035685348)" fill="none" stroke="#1e0403" stroke-width="2.4" stroke-linecap="square" stroke-linejoin="miter" stroke-miterlimit="2" d="M0 40.32L120 0" sodipodi:nodetypes="cc"/><path id="shape61" transform="matrix(1.00000003526685 0 0 1.00000003526685 52.8000012594 95.5200035685348)" fill="none" stroke="#1e0403" stroke-width="2.4" stroke-linecap="square" stroke-linejoin="miter" stroke-miterlimit="2" d="M0 119.04C97.76 79.36 195.52 39.68 293.28 0" sodipodi:nodetypes="cc"/><path id="shape62" transform="matrix(1.00000003526685 0 0 1.00000003526685 111.360003051288 95.5200035685348)" fill="none" stroke="#1e0403" stroke-width="2.4" stroke-linecap="square" stroke-linejoin="miter" stroke-miterlimit="2" d="M0 119.52L236.64 0" sodipodi:nodetypes="cc"/><path id="shape63" transform="matrix(1.00000003526685 0 0 1.00000003526685 169.920004843176 95.5200035685348)" fill="none" stroke="#1e0403" stroke-width="2.4" stroke-linecap="square" stroke-linejoin="miter" stroke-miterlimit="2" d="M0 120.48L179.52 0" sodipodi:nodetypes="cc"/><path id="shape64" transform="matrix(1.00000003526685 0 0 1.00000003526685 227.520006605688 95.5200035685348)" fill="none" stroke="#1e0403" stroke-width="2.4" stroke-linecap="square" stroke-linejoin="miter" stroke-miterlimit="2" d="M0 122.88L125.76 0" sodipodi:nodetypes="cc"/><path id="shape65" transform="matrix(1.00000003526685 0 0 1.00000003526685 291.599986636743 95.5200035685348)" fill="none" stroke="#1e0403" stroke-width="2.4" stroke-linecap="square" stroke-linejoin="miter" stroke-miterlimit="2" d="M0 123.12L59.04 0" sodipodi:nodetypes="cc"/><path id="shape66" transform="matrix(1.00000003526685 0 0 1.00000003526685 -64.8000030257088 150.959993630779)" fill="none" stroke="#1e0403" stroke-width="2.4" stroke-linecap="square" stroke-linejoin="miter" stroke-miterlimit="2" d="M0 63.36L218.88 0" sodipodi:nodetypes="cc"/><path id="shape67" transform="matrix(1.00000003526685 0 0 1.00000003526685 -77.7600026497979 166.799993171333)" fill="none" stroke="#1e0403" stroke-width="2.4" stroke-linecap="square" stroke-linejoin="miter" stroke-miterlimit="2" d="M0 36.72L144 0" sodipodi:nodetypes="cc"/><path id="shape68" transform="matrix(1.00000003526685 0 0 1.00000003526685 -74.1600027542177 161.039993338404)" fill="none" stroke="#1e0403" stroke-width="2.4" stroke-linecap="square" stroke-linejoin="miter" stroke-miterlimit="2" d="M0 33.12L131.04 0" sodipodi:nodetypes="cc"/>
</svg>
